<svg id="Layer_1" xmlns="http://www.w3.org/2000/svg" viewBox="0 0 100 100"><style>.st0{fill:#1DB1E3;}</style><path class="st0" d="M70 39L93.7 0H82.8L65.3 39H1v14h4.7l3.8 43.1 1.5.5c.3.1 7.9 3.4 38.9 3.4s39.9-3 40.3-3.2l1.6-.6L95.3 53H99V39H70zm24 9h-3.7l-3.5 44.5c-3.7.8-14.1 2.3-36.9 2.3-22.9 0-32.1-1.7-35.5-2.5l-4-44.3H6v-4h88v4z"/><path class="st0" d="M30.6 63H27l-5 5.7V63h-3v13h3v-6l5.2 6h3.7l-5.7-6.8zM41.4 63l-3.1 7.1-3-7.1h-3.5l6.3 13h.4l6.3-13zM49.9 63h-.4l-6.2 13h3.1l1-2H52l1 2h3.2l-6.3-13zm-1.6 8l1.3-3.2 1.3 3.2h-2.6zM61 71.9h1c.2 0 .3-.1.5-.1l2.2 4.2h3.5L65 71c1.4-.8 2.3-2.2 2.3-3.8 0-2.4-1.4-4.4-5.6-4.4-1.5 0-2.7.1-3.7.2v13h3v-4.1zm0-6.2c0-.1.6-.1 1-.1 1.3 0 2.1.6 2.1 1.7 0 1.3-.8 2-2.3 2-.4 0-.9 0-.9-.1v-3.5zM76 76.4c2 0 4-.5 5-1.3V69h-5v2h2v2.3c0 .3-.9.4-1.8.4-2.2 0-3.8-1.6-3.8-4.1 0-2.3 1.4-4 4.1-4 1 0 2 .3 3 .7l1.3-2.5c-1.3-.7-2.7-1.1-4.4-1.1-4 0-7.1 2.8-7.1 6.8-.2 4.1 2.9 6.9 6.7 6.9z"/></svg>