<svg id="Layer_1" xmlns="http://www.w3.org/2000/svg" viewBox="0 0 400 135"><style>.st0{fill:#FFFFFF;}</style><path class="st0" d="M351.9 38.8c.2-.9 1-1.6 2-1.4l8.4 1.5c.9.2 1.6 1.1 1.4 2L354.4 92l28.4 5.2c1 .2 1.6 1.1 1.4 2l-1.4 7.5c-.2.9-1 1.6-2 1.4l-38.5-7c-1-.2-1.6-1.1-1.4-2l11-60.3zM7.7 46.7c-.2-.9.3-1.9 1.3-2.1l8.4-1.7c.9-.2 1.9.5 2.1 1.4l10.2 50.9 23.2-4.6c1-.2 1.9.5 2.1 1.4l1.5 7.4c.2.9-.4 1.9-1.4 2.1l-33.2 6.6c-1 .2-1.9-.5-2.1-1.4l-12.1-60zM54.5 38c-.1-.9.6-1.9 1.5-2l8.5-1.3c.9-.1 1.9.6 2 1.5l9 60.6c.1.9-.6 1.9-1.5 2l-8.5 1.3c-.9.1-1.9-.6-2-1.5l-9-60.6zM84.5 32.5c-.1-.9.7-1.7 1.6-1.8l2.3-.2 42 37.3h.1l-3.4-38.1c-.1-.9.6-1.8 1.6-1.9l8.5-.8c.9-.1 1.8.7 1.9 1.6l5.6 62.1c.1.9-.7 1.7-1.6 1.8l-2.2.2-42.4-38.9h-.1l3.6 39.7c.1.9-.6 1.8-1.6 1.9l-8.4.7c-.9.1-1.8-.7-1.9-1.6l-5.6-62zM156.6 27.8c0-.9.7-1.8 1.6-1.8l21.9-.4c17.9-.3 32.7 14 33.1 31.7.3 18-14.1 32.8-31.9 33.1l-21.9.4c-.9 0-1.7-.8-1.7-1.7l-1.1-61.3zM180 79.1c12-.2 20.7-9.4 20.5-21.6-.2-12-9.2-20.9-21.2-20.7l-10.6.2.7 42.3 10.6-.2zM209.8 87.3l31.4-61.1c.3-.5.8-1 1.6-1h.9c.9 0 1.3.5 1.5 1.1l25.9 63.4c.5 1.2-.3 2.4-1.7 2.3l-8-.3c-1.4-.1-2-.6-2.6-2l-4.1-10.2-27.7-.9-4.9 9.8c-.4.9-1.3 1.8-2.8 1.7l-8-.3c-1.4-.1-2.1-1.3-1.5-2.5zm40.8-18l-8.4-20.7h-.3l-9.9 20 18.6.7zM281.2 30c.1-.9 1-1.7 1.9-1.6l8.6.9c1 .1 1.7 1 1.6 1.9l-2.7 24.4 30 3.3 2.7-24.4c.1-.9.9-1.7 1.9-1.6l8.5.9c.9.1 1.7 1 1.6 1.9l-6.7 60.9c-.1.9-1 1.7-1.9 1.6l-8.5-.9c-1-.1-1.7-1-1.6-1.9l2.8-25.4-30-3.3-2.8 25.4c-.1.9-.9 1.7-1.9 1.6l-8.6-.9c-.9-.1-1.7-1-1.6-1.9l6.7-60.9z"/><g><path class="st0" d="M382.8 83.9c-1.2 0-2.4-.1-3.6-.4-7.1-1.6-10.5-5.9-11.4-7.2-.4-.6-1.1-1.8.2-3.2l2.6-2.8c.5-.5 1.1-.8 1.9-.8.7 0 1.5.3 1.9.9l.1.1c2.4 2.5 4.6 4.1 6.4 4.5 1.9.4 3.7-.5 4.1-2 .3-1.3 0-3.2-4.7-6.4-2.4-1.6-9.6-6.7-7.8-14.8.9-4.1 4.5-8.8 11.6-8.8 1.2 0 2.5.2 3.9.4 5.8 1.3 9.5 5.3 10.3 6.2.4.4.7 1.1.7 1.7 0 .7-.3 1.4-.8 1.9l-2.6 2.5c-1.1 1.1-2.9 1.2-3.8.2-2.2-2.3-4.5-3.8-5.9-4.1-.4-.1-.7-.1-1-.1-1.6 0-2.6.9-2.8 1.8-.3 1.3 0 2.9 4.3 5.9 5.3 3.6 10.4 8.3 8.8 15.6-1.3 5.2-6.3 8.9-12.4 8.9z"/></g><g><path class="st0" d="M93.3 109.8c0-.2.2-.3.3-.4h.3c.1 0 .3.1.4.2l5.6 8.3 3.8-9.3c0-.1.2-.2.3-.2h.3c.2 0 .4.1.4.3l3.7 13.5c.1.3-.1.5-.3.5l-2.4.2c-.2 0-.4-.1-.4-.3l-1.6-6.2-2.7 7c0 .1-.2.2-.3.3h-.4c-.1 0-.3-.1-.4-.2l-4.1-6.3-.2 6.4c0 .2-.1.3-.4.4l-2.4.2c-.2 0-.4-.1-.4-.4l.9-14zM112.1 108.2c0-.2.1-.4.4-.4l8.5-.7c.2 0 .4.2.4.4l.2 2.2c0 .2-.1.4-.4.4l-5.7.5.2 2.5 4.7-.4c.2 0 .4.2.4.4l.2 2.2c0 .2-.2.4-.4.4l-4.7.4.2 2.8 5.7-.5c.2 0 .4.2.4.4l.2 2.2c0 .2-.1.4-.4.4l-8.5.7c-.2 0-.4-.2-.4-.4l-1-13.5zM124.9 119.3l1.3-1.5c.2-.2.4-.2.6 0 .3.2.5.4 1.1.4.6 0 1.2-.6 1.1-1.6l-.7-9.6c0-.2.1-.4.4-.4l2.5-.2c.2 0 .4.2.4.4l.7 9.7c.2 2.8-1.7 4.6-4.1 4.8-1.8.1-2.8-.9-3.2-1.3-.3-.3-.3-.5-.1-.7zM136.9 106.3c0-.2.1-.4.4-.4l8.5-.5c.2 0 .4.2.4.4l.1 2.2c0 .2-.1.4-.4.4l-5.7.3.1 2.5 4.7-.3c.2 0 .4.2.4.4l.1 2.2c0 .2-.2.4-.4.4l-4.7.3.2 2.8 5.7-.3c.2 0 .4.2.4.4l.1 2.2c0 .2-.1.4-.4.4l-8.5.5c-.2 0-.4-.2-.4-.4l-.6-13.5zM151.1 105.5c0-.2.1-.4.4-.4l6.1-.3c2.5-.1 4.6 1.8 4.7 4.2.1 1.9-1.1 3.5-2.9 4.3l3 5.1c.2.3 0 .6-.3.6l-2.7.1c-.2 0-.3-.1-.3-.2l-3-5.3-1.4.1.2 5.2c0 .2-.2.4-.4.4l-2.4.1c-.2 0-.4-.2-.4-.4l-.6-13.5zm6.5 5.5c.8 0 1.5-.8 1.5-1.7 0-.9-.8-1.5-1.6-1.5l-3 .1.1 3.2 3-.1zM167 104.9c0-.2.2-.4.4-.4l2.5-.1c.2 0 .4.2.4.4l.4 13.6c0 .2-.2.4-.4.4l-2.5.1c-.2 0-.4-.2-.4-.4l-.4-13.6zM176.1 104.6c0-.2.2-.4.4-.4l4.9-.1c2.5 0 4.6 2 4.7 4.4 0 2.5-2 4.7-4.5 4.7h-2.2l.1 4.8c0 .2-.2.4-.4.4h-2.4c-.2 0-.4-.2-.4-.4l-.2-13.4zm5.3 5.7c.9 0 1.6-.7 1.6-1.7 0-.9-.8-1.5-1.7-1.5h-1.9l.1 3.1 1.9.1zM189.6 104.4c0-.2.2-.4.4-.4h6.1c2.5 0 4.5 2 4.5 4.4 0 1.9-1.2 3.4-3 4.1l2.8 5.2c.1.3 0 .6-.3.6h-2.7c-.2 0-.3-.1-.3-.2l-2.8-5.4h-1.4v5.2c0 .2-.2.4-.4.4h-2.4c-.2 0-.4-.2-.4-.4l-.1-13.5zm6.2 5.7c.8 0 1.6-.8 1.6-1.7 0-.9-.7-1.6-1.6-1.6h-3v3.2l3 .1zM211 103.8c4.1 0 7.4 3.4 7.3 7.5 0 4.1-3.4 7.3-7.5 7.3s-7.3-3.3-7.3-7.4c.1-4.1 3.4-7.4 7.5-7.4zm-.1 11.5c2.3 0 4.1-1.8 4.1-4 0-2.3-1.8-4.1-4.1-4.2-2.2 0-4.1 1.8-4.1 4.1 0 2.2 1.8 4.1 4.1 4.1zM222.3 104.6c0-.2.2-.4.4-.4l5 .1c4 .1 7.1 3.4 7 7.4-.1 4-3.4 7.1-7.4 7l-5-.1c-.2 0-.4-.2-.4-.4l.4-13.6zm4.8 11.1c2.3.1 4-1.7 4.1-4.1.1-2.3-1.6-4.2-3.9-4.3l-2-.1-.2 8.3 2 .2zM239 105.1c0-.2.2-.4.4-.4l2.5.1c.2 0 .4.2.4.4l-.4 8.3c-.1 1.4 1 2.6 2.4 2.7 1.5.1 2.6-1 2.7-2.5l.4-8.3c0-.2.2-.4.4-.4l2.5.1c.2 0 .4.2.4.4l-.4 8.5c-.1 3.1-2.9 5.6-6.1 5.4-3.2-.1-5.7-2.8-5.6-6l.4-8.3zM256.2 106c0-.3.2-.5.5-.5l2.4.1c.3 0 .5.3.5.5l-.3 5.4 4.9-5.4c.1-.1.3-.2.4-.2l2.6.2c.4 0 .6.5.3.8l-5.2 5.7 4.8 7.1c.2.3 0 .8-.4.7l-2.8-.2c-.1 0-.3-.1-.4-.2l-4.3-6.7-.4 6.1c0 .3-.3.5-.5.5l-2.4-.1c-.3 0-.5-.3-.5-.5l.8-13.3zM273.4 109.7l-2.9-.2c-.2 0-.4-.2-.4-.4l.2-2.2c0-.2.2-.4.4-.4l9.1.7c.2 0 .4.2.4.4l-.2 2.2c0 .2-.2.4-.4.4l-2.9-.2-.8 10.9c0 .2-.2.4-.4.4l-2.5-.2c-.2 0-.4-.2-.4-.4l.8-11zM284 107.9c0-.2.2-.4.4-.4l8.5.8c.2 0 .4.2.4.4l-.2 2.2c0 .2-.2.4-.4.4l-5.7-.5-.2 2.5 4.7.4c.2 0 .4.2.4.4l-.2 2.2c0 .2-.2.4-.4.4l-4.7-.4-.2 2.8 5.7.5c.2 0 .4.2.4.4l-.2 2.2c0 .2-.2.4-.4.4l-8.5-.8c-.2 0-.4-.2-.4-.4l1-13.5zM297.9 109.2c0-.2.2-.4.4-.3l6.1.6c2.4.3 4.2 2.5 4 4.9-.2 1.9-1.6 3.3-3.5 3.8l2.2 5.5c.1.3-.1.6-.4.6l-2.7-.3c-.2 0-.3-.1-.3-.2l-2.1-5.7-1.4-.1-.6 5.2c0 .2-.2.4-.4.3l-2.4-.3c-.2 0-.4-.2-.3-.4l1.4-13.6zm5.7 6.3c.8.1 1.6-.6 1.7-1.5.1-.9-.6-1.6-1.4-1.7l-3-.3-.3 3.2 3 .3z"/></g><path class="st0" d="M397.3 30.3c-.2 1.1-1.3 1.8-2.4 1.5-128.7-26.4-261.4-26.4-390 0-1.1.2-2.1-.5-2.4-1.5-.5-2.3-1-4.7-1.5-7.1-.2-1.1.5-2.1 1.6-2.4C132.8-5.8 267-5.8 397.2 20.9c1.1.2 1.8 1.3 1.6 2.4-.6 2.3-1 4.7-1.5 7z"/><g><path class="st0" d="M79.4 122.5c.2 1.1-.6 2.2-1.8 2.4-17.4 2.5-34.7 5.5-51.9 9-1.3.3-2.6-.8-2.4-2.2-.4-2-.8-3.8-1.2-5.8-.8-1.2 0-2.7 1.3-3 17.5-3.6 35.1-6.6 52.7-9.1 1.1-.2 2.1.6 2.3 1.7l1 7zM379.6 125.9c-.4 2-.8 3.7-1.2 5.7.2 1.5-1.1 2.5-2.4 2.2-17.2-3.5-34.6-6.5-51.9-9-1.2-.2-2-1.2-1.8-2.4l1-7.1c.2-1.1 1.2-1.8 2.3-1.7 17.6 2.5 35.2 5.6 52.7 9.1 1.3.4 2 1.9 1.3 3.2z"/></g></svg>