<svg id="Layer_1" xmlns="http://www.w3.org/2000/svg" viewBox="0 0 400 400"><style>.st0{fill:#FFFFFF;}</style><path class="st0" d="M63.6 197l-32.8 5.8.9-55.3 12.4-2.2-.7 43.6 20.5-3.6-.3 11.7zM82.3 193.7l-12.4 2.2.9-55.3 12.4-2.2-.9 55.3zM138.4 184.7l-1.3.5-30.4-24.6-.5 29-12.4 2.2.9-56 1.7-.6 29.9 24.6.5-28.9 12.4-2.2-.8 56zM149.8 181.3l1-54.2c3.6-1.2 7.4-2.2 12.1-3 11.3-2 19.7-.5 25.3 3.4 4.4 3.1 7.5 8.1 8.7 14.9 3.4 19.3-10.9 33.6-30.3 37-5.2.8-9.7 1.4-16.8 1.9zm13.2-45.6l-.5 32.7c1.3-.1 2.6-.2 3.8-.5 10.9-1.9 19.7-10.2 17.5-22.5-.8-4.4-2.7-7.1-5-8.7-3.5-2.5-7.9-2.7-12.1-1.9-1.1.2-2.4.5-3.7.9zM235.6 166.7l-3.8-9.3-17.6 3.1-4.1 10.7-13.1 2.3 25.6-60.1 1.7-.3 23.6 51.4-12.3 2.2zm-12.2-30.5l-5.2 13.8 10.1-1.8-4.9-12zM297.2 155.8l-12.4 2.2.4-22.2-19.3 3.4-.4 22.2-12.4 2.2.9-55.3 12.4-2.2-.4 21.6 19.3-3.4.4-21.6 12.4-2.2-.9 55.3zM341.5 148l-32.8 5.8.9-55.3 12.4-2.2-.7 43.6 20.5-3.6-.3 11.7zM378.6 102c-3.9-2.1-9.4-3.7-13.5-3-3.9.7-5.2 3.1-4.8 5.4.5 2.6 2.7 3.4 9.8 6.1 8.1 3 12 6.8 13.1 12.7 1.8 10.1-4.4 19.1-16.4 21.2-7.8 1.4-15.6-.6-20.8-3.4l3.4-11.3c4.4 2.7 10.9 4.4 16.2 3.5 3.8-.7 5.6-3.2 5.1-6.2-.5-2.6-2.6-3.8-8.8-6.1-8.4-3.1-12.7-6.4-13.9-13-1.7-9.5 5-17.9 15.5-19.8 7.1-1.3 13.2-.1 18.3 2.3l-3.2 11.6z"/><g><path class="st0" d="M43 271.4l1-54.2c3.6-1.2 7.4-2.2 12.1-3 11.3-2 19.7-.5 25.3 3.4 4.4 3.1 7.5 8.1 8.7 14.9 3.4 19.3-10.9 33.6-30.3 37-5.2.8-9.7 1.4-16.8 1.9zm13.2-45.7l-.5 32.7c1.3-.1 2.6-.2 3.8-.5 10.9-1.9 19.7-10.2 17.5-22.5-.8-4.4-2.7-7.1-5-8.7-3.5-2.5-7.9-2.7-12.1-1.9-1.2.2-2.5.5-3.7.9zM132.1 212.8l-20.6 3.6-.1 9.9L130 223l-.2 11.2-18.5 3.3-.1 10.8 20.4-3.6-.3 11.7-32.8 5.8.9-55.3 32.9-5.8-.2 11.7zM174.3 248.7l-32.8 5.8.9-55.3 12.4-2.2-.7 43.6 20.5-3.6-.3 11.7zM193 245.4l-12.4 2.2.9-55.3 12.4-2.2-.9 55.3zM224.7 240.3l-1.5.3-24-51.3 13.9-2.5 11.5 28.1 12.1-32.3 13.9-2.5-25.9 60.2zM288.7 185.2l-20.6 3.6-.1 9.9 18.6-3.3-.2 11.2-18.5 3.3-.1 10.8 20.4-3.6-.3 11.7-32.8 5.8.9-55.3 32.9-5.8-.2 11.7zM326.9 201.3l12.4 18.3-14.1 2.5-9.3-16.3-.7.1c-1.8.3-3 .5-4.4.6l-.3 18.1-12.4 2.2.9-54.8c3.7-1.2 7.6-2.3 12.8-3.2 13.4-2.4 23.1 1.9 25 12.4 1.4 8.8-3.3 15.8-9.9 20.1zM314.3 180c-1.2.2-2.2.5-3.1.9l-.2 15.2c1.6-.1 2.2-.2 3.6-.4 5.5-1 10.3-4.9 9.3-10.5-.9-4.6-4.9-6.1-9.6-5.2zM367.7 192.8l-.4 21.9-12.4 2.2.4-22-17.7-30.1 13.9-2.5 10.3 19.3 10.5-23 14.2-2.5-18.8 36.7z"/></g><g><path class="st0" d="M397.35 47.693L399 57.05 4.393 126.65l-1.65-9.355z"/></g><g><path class="st0" d="M395.603 273.347l1.65 9.356-394.61 69.6-1.65-9.354z"/></g><g><path class="st0" d="M48.4 300.7l7.5 7.8-3.6.6-6.7-7.4-.1 8.6-3 .5.3-18 2.9-.5-.1 8.1 6.5-9.2 3.7-.7-7.4 10.2zM65.5 307.1l-.4.1-7.5-16.9 3.3-.6 4.6 11.2 4.8-12.9 3.4-.6-8.2 19.7zM85.9 303.3l-1.5-3.8-6.6 1.2L76 305l-3.1.6L81 286l.4-.1 7.5 16.9-3 .5zm-4.7-11.7l-2.5 6.4 4.7-.8-2.2-5.6zM100.1 293.8l4.5 6.2-3.4.6-3.8-5.7c-.1 0-.3.1-.4.1-.6.1-1.1.2-1.7.2l-.1 6.5-3 .5.3-17.9c1-.3 2.1-.6 3.6-.9 4.1-.7 7 .9 7.5 4 .4 2.7-1 5-3.5 6.4zm-3.4-7.8c-.6.1-1 .2-1.4.4l-.1 6.2c.6-.1 1-.1 1.6-.2 2.6-.5 4-2.1 3.7-4.1-.3-1.8-1.8-2.6-3.8-2.3zM122.3 295.5c-1.7 1.4-3.3 2.2-5.6 2.6-4.3.8-8.4-1.5-9.3-6.4-1-5.9 2.9-11 8.3-12 2.3-.4 4.4 0 5.9.7l-1.2 2.6c-1.2-.6-2.9-.8-4.6-.5-3.9.7-6.1 4.5-5.4 8.4.6 3.5 3.1 5.1 6.2 4.5 1.3-.2 2.1-.7 2.8-1.2l.1-3.7-3.9.7v-2.7l6.8-1.2-.1 8.2zM150 292l-2.9.5v-10.6l-5.3 9.4-.3.1-5.4-7.8-.4 11-2.9.5 1-18.4.4-.1 7.3 10.6L149 274h.5l.5 18zM165.4 274.1l-7.3 1.3-.1 4.7 6.5-1.2v2.7l-6.5 1.2-.1 5 7.3-1.3v2.8l-10.2 1.8.3-18 10.2-1.8-.1 2.8zM169.6 288.3l.3-17.6c1.2-.4 2.3-.7 3.8-1 3.2-.6 5.7-.1 7.5 1.2 1.6 1.1 2.6 2.9 3 5 1 5.9-3 10.8-9.6 11.9-1.6.2-3.1.4-5 .5zm3.2-15.6l-.2 12.6c.7 0 1.4-.1 2.1-.2 4.3-.7 7.2-4.1 6.4-8.4-.3-1.8-1.1-3-2.1-3.6-1.2-.8-2.8-1.1-4.5-.8-.6.1-1.1.2-1.7.4zM208.1 275.3c-.1 4.4-2.3 7.1-6.3 7.8-3.7.6-6.4-.9-7-4.5-.1-.6-.2-1.3-.1-2l.2-10.5 2.9-.5-.2 10.7c0 .4 0 1 .1 1.5.4 2 1.7 3 3.9 2.6 2.3-.4 3.5-2 3.5-5.1l.2-11.1 2.9-.5-.1 11.6zM225.3 263.5l-5.3.9-.3 15.2-2.9.5.3-15.2-5.3.9V263l13.6-2.4-.1 2.9zM237.6 262.5c-1.2-.6-2.6-1-3.9-.8-1.7.3-2.3 1.5-2.1 2.7.2 1.2 1.3 1.6 3.2 2.4 2.2.9 3.8 1.9 4.2 4.1.5 2.9-1.1 5.8-4.9 6.5-2.2.4-4.5-.2-6.1-1.1l.9-2.7c1.4.9 3.3 1.3 4.8 1 1.9-.3 2.6-1.5 2.3-2.9-.2-1.3-1.4-1.8-3.2-2.5-2.2-.9-3.8-1.8-4.2-4-.5-2.9 1.4-5.7 4.7-6.2 1.9-.3 3.7 0 5.1.7l-.8 2.8zM247.6 269c-.3 0-1.3.2-1.6.2l-.1 5.9-3 .5.3-17.9c1.1-.4 2-.6 3.3-.9 4.3-.8 7.2.9 7.8 4.2.7 3.9-1.8 7.1-6.7 8zm-.2-9.5c-.5.1-.9.2-1.3.3l-.1 6.6c.5 0 1-.1 1.5-.2 2.7-.5 4.1-2.2 3.7-4.4-.2-1.7-1.6-2.6-3.8-2.3zM266 264.5l4.5 6.2-3.4.6-3.8-5.7c-.1 0-.3.1-.4.1-.6.1-1.1.2-1.7.2l-.1 6.5-3 .5.3-17.9c1-.3 2.1-.6 3.6-.9 4.1-.7 7 .9 7.5 4 .4 2.7-1 5.1-3.5 6.4zm-3.4-7.7c-.6.1-1 .2-1.4.4l-.1 6.2c.6-.1 1-.1 1.6-.2 2.6-.5 4-2.1 3.7-4.1-.3-1.9-1.8-2.7-3.8-2.3zM277 269.6l-2.9.5.3-18 3-.5-.4 18zM296 266.5l-.3.1-10.3-10.1-.2 11.6-3 .5.3-18.3.5-.2 10.1 10 .2-11.5 3-.5-.3 18.4zM315.5 261.4c-1.7 1.4-3.3 2.2-5.6 2.6-4.3.8-8.4-1.5-9.3-6.4-1-5.9 2.9-11 8.3-12 2.3-.4 4.4 0 5.9.7l-1.2 2.6c-1.2-.6-2.9-.8-4.6-.5-3.9.7-6.1 4.5-5.4 8.4.6 3.5 3.1 5.1 6.2 4.5 1.3-.2 2.1-.7 2.8-1.2l.1-3.7-3.9.7v-2.7l6.8-1.2-.1 8.2zM333.8 259.8l-.3.1-10.3-10.1-.2 11.6-3 .5.3-18.3.5-.2 10.1 10 .2-11.5 3-.5-.3 18.4zM342.1 258.1l-2.9.5.3-18 3-.5-.4 18zM361.1 255l-.3.1-10.3-10.1-.2 11.6-3 .5.3-18.3.5-.2 10.1 10 .2-11.5 3-.5-.3 18.4zM380.6 250c-1.7 1.4-3.3 2.2-5.6 2.6-4.3.8-8.4-1.5-9.3-6.4-1-5.9 2.9-11 8.3-12 2.3-.4 4.4 0 5.9.7l-1.2 2.6c-1.2-.6-2.9-.8-4.6-.5-3.9.7-6.1 4.5-5.4 8.4.6 3.5 3.1 5.1 6.2 4.5 1.3-.2 2.1-.7 2.8-1.2l.1-3.7-3.9.7V243l6.8-1.2-.1 8.2z"/></g></svg>